<svg width="18px" height="18px" viewBox="0 0 18 18" version="1.1" xmlns="http://www.w3.org/2000/svg" xmlns:xlink="http://www.w3.org/1999/xlink">
    <g id="Page-1" stroke="none" stroke-width="1" fill="none" fill-rule="evenodd">
        <g id="glo3" transform="translate(-1382.000000, -35.000000)" fill="#D8D8D8" fill-rule="nonzero">
            <path d="M1394.72468,44 L1399.7796,49.0549202 C1400.07347,49.3487892 1400.07347,49.825245 1399.7796,50.1191139 L1397.11911,52.7795983 C1396.82524,53.0734672 1396.34879,53.0734672 1396.05492,52.7795983 L1391,47.7246781 L1385.94508,52.7795983 C1385.65121,53.0734672 1385.17476,53.0734672 1384.88089,52.7795983 L1382.2204,50.1191139 C1381.92653,49.825245 1381.92653,49.3487892 1382.2204,49.0549202 L1387.27532,44 L1382.2204,38.9450798 C1381.92653,38.6512108 1381.92653,38.174755 1382.2204,37.8808861 L1384.88089,35.2204017 C1385.17476,34.9265328 1385.65121,34.9265328 1385.94508,35.2204017 L1391,40.2753219 L1396.05492,35.2204017 C1396.34879,34.9265328 1396.82524,34.9265328 1397.11911,35.2204017 L1399.7796,37.8808861 C1400.07347,38.174755 1400.07347,38.6512108 1399.7796,38.9450798 L1394.72468,44 Z" id="Path"></path>
        </g>
    </g>
</svg>