<svg width="289px" height="71px" viewBox="0 0 289 71" version="1.1" xmlns="http://www.w3.org/2000/svg" xmlns:xlink="http://www.w3.org/1999/xlink">
    <defs>
        <linearGradient x1="50%" y1="0%" x2="50%" y2="100%" id="linearGradient-1">
            <stop stop-color="#F09835" offset="0%"></stop>
            <stop stop-color="#E65A39" offset="100%"></stop>
        </linearGradient>
    </defs>
    <g id="Page-1" stroke="none" stroke-width="1" fill="none" fill-rule="evenodd">
        <g id="glo2" transform="translate(-582.000000, -40.000000)">
            <g id="Group-9" transform="translate(582.000000, 40.000000)">
                <path d="M44.902619,48.1156268 L49.6552731,48.1156268 L47.365211,34.8236365 L44.902619,48.1156268 Z M42.5304415,58.0454626 L48.9356703,24 L54.8558498,58.046334 L56.2020202,58.0500372 L56.2020202,58.4615385 L50.0429195,58.4608849 L50.0429195,58.0432842 L51.3912738,58.0432842 L49.715331,48.5482585 L44.8093655,48.5482585 L43.0696521,58.0515621 L44.7995378,58.0515621 L44.7995378,58.4584887 L41.0707071,58.4584887 L41.0707071,58.0550476 L42.5304415,58.0454626 Z M27.1952097,24.9487414 L27.1952097,41.4744104 C27.8869171,41.4702596 29.0322427,41.5484705 30.221594,40.0185506 C31.3272745,38.5963346 31.7653413,35.0113017 31.7653413,32.3392397 C31.7653413,29.4886907 30.3348343,24.941532 28.4982393,24.941532 L27.1952097,24.9487414 Z M22.3600477,24.5384615 L29.4639575,24.5410831 C32.8644509,24.5410831 35.069679,28.3102832 35.069679,32.8362507 C35.069679,37.3467071 33.2142472,41.5499998 30.3541092,41.5499998 C29.9714579,41.5499998 30.0067223,41.7789525 30.3541092,41.7789525 C32.0680455,41.7789525 33.3550856,43.7344449 33.6146402,44.2548317 C34.662715,46.356915 33.941,56.032353 34.9890747,56.9879249 C35.8741886,57.7949396 36.5238417,56.5339518 36.6394913,56.337769 L36.7474747,56.4159799 C36.7306092,56.5051142 35.9720966,59 34.0588399,59 C32.4693146,59 31.664586,57.0519355 31.4363532,55.8315824 C31.0642154,53.8446309 31.1853409,47.766023 30.982735,46.5432668 C30.8057561,45.4775879 30.3251968,42.2964993 28.8252562,42.0181732 C28.1561092,41.8943028 27.945399,41.8943028 27.1956478,41.8986721 C27.1919242,41.8986721 27.197181,58.2019424 27.197181,58.2019424 L28.6953694,58.2019424 L28.6953694,58.6205239 L22.1565657,58.6205239 L22.1565657,58.2019424 L23.8358946,58.2019424 L23.8297617,24.9487414 L22.3600477,24.9487414 L22.3600477,24.5384615 Z M11.9969254,24.2625881 C11.9980324,24.2564915 12.1839969,24.2652009 12.1839969,24.2652009 L12.6810092,36.0720861 L12.5136411,36.0825373 C12.1667287,34.7432508 11.2313715,24.3588269 7.58381025,24.3588269 C4.78061649,24.3588269 3.83906041,37.0915202 3.83906041,41.3575974 C3.83906041,46.8826169 4.53155686,58.4754688 7.6785636,58.4754688 C9.19572414,58.4754688 10.0192813,55.9194804 10.0192813,52.5463335 L10.0192813,41.7739062 L8.33519546,41.7739062 L8.33519546,41.3504121 L15.1313131,41.3504121 L15.1313131,41.7739062 L13.4259742,41.7739062 L13.4259742,58.6540113 C13.4217679,58.6524871 13.2313756,58.6594546 13.2300473,58.6555354 C12.9838657,57.9531231 12.9482225,56.5080175 11.8423978,56.5080175 C10.6161389,56.5080175 9.30221097,59.0052174 7.59842174,58.9999918 C1.96258985,58.982573 2.84217094e-14,48.7431604 2.84217094e-14,41.3602102 C2.84217094e-14,35.244694 2.27031685,24 7.59332986,24 C8.4852954,24 9.11292565,24.2268796 9.82468271,25.2391285 C10.3462689,25.9818218 11.3332092,26.150784 11.7553929,25.1997185 C11.8829115,24.9129619 11.9420216,24.543466 11.9969254,24.2625881 Z M82.0432334,58.0523211 L82.0432334,24.9420255 L80.520202,24.9420255 L80.520202,24.5384615 L87.0050505,24.5384615 L87.0050505,24.9420255 L85.4753097,24.9420255 L85.4858211,58.0523211 L87.0050505,58.0523211 L87.0050505,58.4615385 L80.520202,58.4615385 L80.520202,58.0523211 L82.0432334,58.0523211 L82.0432334,24.9420255 L82.0432334,58.0523211 Z M64.0328473,58.0492875 L67.9581569,58.0492875 C69.7985643,57.9764478 72.0534466,56.2454723 72.0534466,51.4191358 C72.0534466,50.4978767 72.0646778,49.5357404 72.0646778,48.572517 L72.4141414,48.5742565 L72.4141414,58.4543632 L60.5252525,58.4615385 L68.5959603,24.9435372 L64.8322074,24.9435372 C62.4518378,24.9435372 61.1382177,28.5705192 61.1382177,31.9063598 C61.1382177,32.7615196 61.1388656,33.3459766 61.1388656,33.3459766 L60.7803307,33.3459766 L60.7803307,24.5384615 L72.3301233,24.5384615 L64.0328473,58.0492875 Z M95.7009278,48.1156268 L100.453501,48.1156268 L98.1638093,34.8236365 L95.7009278,48.1156268 Z M93.3286818,58.0456804 L99.7340956,24 L105.654228,58.046334 L107,58.0504729 L107,58.4615385 L100.841813,58.4611028 L100.841813,58.0432842 L102.190207,58.0432842 L100.513342,48.5484764 L95.6074532,48.5484764 L93.867908,58.05178 L95.5976253,58.05178 L95.5976253,58.4584887 L91.8686869,58.4584887 L91.8686869,58.0552654 L93.3286818,58.0456804 Z" id="Combined-Shape" fill="#FFFFFE"></path>
                <path d="M150.566757,40.5667568 L164.066757,40.5667568 C164.619042,40.5667568 165.066757,41.0144721 165.066757,41.5667568 C165.066757,42.1190416 164.619042,42.5667568 164.066757,42.5667568 L150.566757,42.5667568 L150.566757,56.0667568 C150.566757,56.6190416 150.119042,57.0667568 149.566757,57.0667568 C149.014472,57.0667568 148.566757,56.6190416 148.566757,56.0667568 L148.566757,42.5667568 L135.066757,42.5667568 C134.514472,42.5667568 134.066757,42.1190416 134.066757,41.5667568 C134.066757,41.0144721 134.514472,40.5667568 135.066757,40.5667568 L148.566757,40.5667568 L148.566757,27.0667568 C148.566757,26.5144721 149.014472,26.0667568 149.566757,26.0667568 C150.119042,26.0667568 150.566757,26.5144721 150.566757,27.0667568 L150.566757,40.5667568 Z" id="Combined-Shape" fill="#FFFFFF" fill-rule="nonzero" transform="translate(149.566757, 41.566757) rotate(45.000000) translate(-149.566757, -41.566757) "></path>
                <circle id="Oval" fill="url(#linearGradient-1)" fill-rule="nonzero" cx="260.5" cy="40.5" r="13.5"></circle>
                <path d="M288.312202,23.31531 C287.996339,23.31531 287.724865,23.046122 287.724865,22.7254371 L287.724865,19.1913495 L286.235261,21.6524303 C286.004438,22.0639368 285.411494,22.0938986 285.163382,21.6458761 L283.674713,19.1913495 L283.674713,22.7254371 C283.674713,23.046122 283.40464,23.31531 283.088777,23.31531 C282.75656,23.31531 282.499104,23.0568895 282.499104,22.7254371 L282.499104,17.3215461 C282.499104,16.9886892 282.759364,16.749463 283.122887,16.749463 C283.49155,16.749463 283.645276,16.9442147 283.780312,17.1647148 L285.691378,20.3308341 L287.621135,17.1661192 C287.756171,16.9442147 287.909897,16.749463 288.27856,16.749463 C288.640214,16.749463 288.902343,16.9886892 288.902343,17.3215461 L288.902343,22.7254371 C288.902343,23.0568895 288.644419,23.31531 288.312202,23.31531 Z M279.557744,23.31531 C279.229732,23.31531 278.967136,23.0568895 278.967136,22.7254371 L278.967136,17.9278043 L277.458842,17.9278043 C277.160734,17.9278043 276.902343,17.6679794 276.902343,17.3716384 C276.902343,17.0509536 277.145782,16.7995554 277.458842,16.7995554 L281.660384,16.7995554 C281.97578,16.7995554 282.216415,17.0453357 282.216415,17.3716384 C282.216415,17.6843647 281.969238,17.9278043 281.660384,17.9278043 L280.164239,17.9278043 L280.164239,22.7254371 C280.164239,23.0526761 279.892297,23.31531 279.557744,23.31531 Z M259.936811,57.2939184 C250.528855,57.2939184 242.874343,49.6314111 242.874343,40.2012442 C242.874343,30.7732454 250.528855,23.1047157 259.936811,23.1047157 C269.347411,23.1047157 277,30.7732454 277,40.2012442 C277,49.6314111 269.347411,57.2939184 259.936811,57.2939184 Z M259.936811,27.4956801 C252.944197,27.4956801 247.254704,33.1954062 247.254704,40.2012442 C247.254704,47.2051551 252.944197,52.9048812 259.936811,52.9048812 C266.929905,52.9048812 272.618677,47.2051551 272.618677,40.2012442 C272.618677,33.1954062 266.929905,27.4956801 259.936811,27.4956801 Z M237.367792,53.8507404 C237.367792,55.1623929 236.313033,56.224723 235.00318,56.224723 C233.701021,56.224723 232.646984,55.1623929 232.646984,53.8507404 L232.646984,2.36555134 C232.646984,1.05968028 233.701021,-2.27373675e-13 235.00318,-2.27373675e-13 C236.313033,-2.27373675e-13 237.367792,1.05968028 237.367792,2.36555134 L237.367792,53.8507404 Z M226.125657,40.2018224 L226.125657,53.9029897 C226.125657,63.3312294 218.471626,71 209.060785,71 C207.848306,71 206.870003,70.0188502 206.870003,68.8033134 C206.870003,67.593317 207.848306,66.6097583 209.060785,66.6097583 C216.051475,66.6097583 221.742411,60.9090687 221.742411,53.9029897 L221.742411,51.6041652 C218.616123,55.0886561 214.098237,57.2964237 209.062228,57.2964237 C199.654513,57.2964237 192,49.6331937 192,40.2039904 C192,30.7759916 199.654513,23.1064983 209.062228,23.1064983 C218.472347,23.1064983 226.124936,30.7745462 226.125657,40.2018224 Z M209.062228,52.9069047 C216.055563,52.9069047 221.744334,47.2076604 221.744334,40.2039904 C221.744334,33.1979114 216.055563,27.4981853 209.062228,27.4981853 C202.070576,27.4981853 196.381083,33.1979114 196.381083,40.2039904 C196.381083,47.2076604 202.070576,52.9069047 209.062228,52.9069047 Z" id="Combined-Shape" fill="#FFFFFF"></path>
            </g>
        </g>
    </g>
</svg>
